<?xml version="1.0" standalone="no"?>
<!DOCTYPE svg PUBLIC "-//W3C//DTD SVG 20010904//EN"
 "http://www.w3.org/TR/2001/REC-SVG-20010904/DTD/svg10.dtd">
<svg version="1.0" xmlns="http://www.w3.org/2000/svg"
 width="480.000000pt" height="480.000000pt" viewBox="0 0 480.000000 480.000000"
 preserveAspectRatio="xMidYMid meet">

<g transform="translate(0.000000,480.000000) scale(0.100000,-0.100000)"
fill="#000000" stroke="none">
<path d="M0 4337 c0 -357 3 -466 12 -476 10 -11 11 -14 0 -18 -7 -3 -12 -22
-12 -46 1 -46 23 -97 34 -78 4 6 11 11 17 11 12 0 12 -77 0 -84 -5 -3 -7 -32
-4 -64 5 -49 2 -60 -16 -76 -26 -24 -27 -38 -1 -54 23 -14 26 -44 6 -62 -8 -6
-12 -18 -9 -26 3 -7 -2 -17 -11 -20 -12 -4 -16 -19 -16 -56 0 -60 22 -62 30
-3 6 46 20 53 46 24 18 -20 18 -21 1 -34 -15 -11 -16 -17 -8 -34 6 -11 20 -25
30 -30 17 -9 18 -5 19 49 1 72 7 83 37 76 31 -8 40 9 21 38 -14 22 -13 24 10
35 14 6 31 11 39 11 8 0 15 5 15 10 0 21 38 -10 48 -39 6 -17 24 -37 43 -47
l33 -16 34 37 c32 34 33 40 27 85 -5 36 -2 58 9 81 22 44 20 73 -8 105 l-23
28 -57 -17 -57 -16 -34 31 c-27 23 -35 38 -35 63 0 39 14 47 75 38 l45 -6 0
35 c0 19 -5 39 -11 45 -11 11 -3 53 10 53 4 0 19 -9 32 -21 17 -15 32 -19 52
-15 27 6 28 4 22 -24 -5 -24 -3 -31 12 -37 10 -4 30 -16 45 -26 23 -17 34 -19
80 -11 47 8 55 13 73 46 12 22 32 42 48 47 20 7 27 17 27 36 0 18 7 28 25 35
28 11 33 41 10 60 -11 9 -15 28 -14 63 2 39 -1 52 -18 66 -11 9 -26 26 -32 39
-10 18 -9 22 4 22 8 0 15 5 15 10 0 13 -6 13 -46 -2 -25 -9 -36 -9 -48 1 -19
16 -30 84 -17 107 5 11 12 27 15 37 6 20 -10 20 336 6 140 -5 307 -11 370 -13
142 -4 299 -21 312 -34 9 -9 4 -21 -38 -94 -6 -11 -25 -33 -42 -49 -17 -17
-34 -39 -37 -50 -4 -10 -11 -19 -16 -19 -6 0 -17 -16 -25 -36 l-15 -35 -80 2
c-112 3 -117 -9 -25 -55 l49 -25 -2 -98 c-1 -53 -6 -103 -12 -109 -5 -6 -12
-32 -15 -58 -7 -46 7 -112 42 -208 7 -20 16 -67 20 -105 4 -37 13 -83 20 -102
8 -18 12 -36 9 -41 -2 -4 9 -42 26 -85 39 -103 56 -219 35 -241 -9 -8 -16 -27
-16 -42 0 -14 -5 -41 -12 -59 -10 -28 -10 -36 4 -49 15 -15 18 -14 38 6 17 17
20 29 15 59 -5 29 -3 40 9 44 13 5 14 20 9 94 -11 138 -3 295 16 348 6 17 13
56 17 87 5 51 12 65 56 118 27 33 53 60 57 60 3 0 11 13 17 28 9 24 19 30 53
36 23 3 52 13 64 21 22 14 72 22 184 29 47 3 71 0 100 -15 20 -10 43 -19 49
-19 7 0 26 -11 42 -25 75 -63 188 -72 288 -24 35 16 64 34 64 39 0 9 59 21
125 26 22 2 56 6 76 9 30 6 44 2 78 -20 31 -21 54 -28 98 -29 55 -1 57 -2 79
-41 49 -87 56 -111 59 -190 2 -68 6 -81 24 -93 49 -33 87 -104 105 -195 9 -48
14 -97 11 -108 -4 -11 -3 -55 1 -97 l7 -77 18 40 c12 28 16 53 12 87 -4 35 -1
54 11 73 9 14 26 54 37 90 22 71 43 87 81 61 12 -9 31 -16 41 -16 14 0 17 -3
9 -12 -7 -9 -3 -29 14 -65 29 -63 54 -69 84 -20 31 49 23 69 -33 85 l-49 14 7
47 c6 44 4 48 -19 59 -21 9 -25 19 -28 59 -3 46 -4 48 -34 49 -17 1 -36 4 -43
8 -21 13 -13 91 15 140 22 39 25 54 20 94 -19 139 -19 140 1 151 12 6 34 7 59
1 66 -14 227 -20 266 -11 21 5 72 5 115 1 43 -5 138 -11 211 -15 73 -3 143
-10 157 -15 14 -5 49 -5 90 1 49 8 70 8 80 -1 10 -9 64 -10 195 -7 104 3 182
1 186 -4 3 -5 14 -9 25 -9 16 0 19 7 19 54 l0 54 -57 6 c-62 6 -233 12 -598
21 -126 4 -282 11 -345 16 -63 6 -196 13 -295 16 -184 5 -211 11 -202 44 6 21
-19 97 -38 119 -7 8 -16 26 -20 40 -4 14 -18 44 -31 67 -13 23 -24 46 -24 52
0 16 107 13 164 -4 50 -15 151 -20 180 -9 23 9 22 101 -1 127 -12 13 -18 36
-18 71 0 61 -8 76 -40 76 -19 0 -30 -14 -60 -72 -20 -40 -45 -81 -55 -92 -18
-18 -18 -18 -35 8 -13 19 -15 36 -11 63 4 21 9 94 12 163 4 69 11 131 17 138
8 11 32 12 101 7 50 -3 99 -9 108 -11 10 -3 25 4 35 15 23 27 36 26 48 -1 11
-25 25 -28 345 -62 85 -9 198 -21 250 -27 52 -6 138 -14 190 -19 52 -5 110
-12 129 -15 31 -6 33 -8 27 -38 -16 -76 -18 -97 -8 -97 5 0 13 10 17 23 4 12
8 24 9 27 1 3 6 28 10 57 9 58 36 95 36 49 0 -32 5 -34 93 -38 l67 -4 0 148 0
148 -1602 -1 c-969 0 -1591 -4 -1573 -10 17 -5 113 -13 215 -19 428 -24 459
-30 431 -83 -15 -29 -11 -139 7 -145 7 -2 12 6 12 23 0 14 5 35 10 46 7 13 8
31 1 55 -14 49 -5 66 33 62 28 -3 31 -6 29 -33 -2 -16 -3 -54 -3 -83 -1 -51
-2 -54 -34 -67 -18 -8 -38 -21 -46 -30 -10 -12 -24 -14 -61 -9 -37 5 -55 2
-74 -10 -31 -20 -59 -22 -113 -7 -27 8 -48 9 -55 3 -18 -14 -120 -23 -154 -13
-22 6 -35 5 -44 -4 -14 -14 -153 -54 -199 -58 -14 -2 -35 6 -46 16 -23 20 -27
18 -57 -26 -15 -22 -43 -14 -50 14 -4 13 -14 19 -35 19 -20 0 -37 8 -47 23
-12 15 -19 18 -22 10 -8 -22 -32 -14 -39 12 -7 27 9 55 31 55 7 0 15 7 19 15
4 12 -4 15 -39 15 -25 0 -48 1 -52 3 -3 1 -16 -16 -29 -38 -27 -49 -77 -66
-107 -36 -18 18 -18 19 3 39 l21 20 -22 21 c-24 22 -41 25 -73 12 -19 -7 -18
-8 5 -14 17 -5 20 -9 11 -15 -10 -7 -10 -11 2 -22 19 -15 12 -30 -15 -30 -11
0 -22 -7 -25 -15 -10 -24 -105 -5 -141 28 -12 11 -29 17 -37 14 -10 -4 -16 -1
-16 9 0 8 14 20 30 26 23 7 28 13 20 23 -5 6 -7 15 -4 18 12 12 -61 23 -110
16 -35 -5 -66 -2 -99 8 -57 18 -62 24 -37 46 19 16 21 16 32 -3 16 -25 28 -26
28 -1 0 25 29 49 39 33 4 -7 21 -12 37 -10 16 1 34 -1 40 -5 6 -3 19 0 29 7
26 19 52 9 64 -25 8 -22 17 -29 38 -30 40 -2 84 -7 111 -14 18 -4 22 -1 22 16
0 15 -4 19 -16 15 -10 -4 -14 -1 -11 6 4 13 92 16 120 5 7 -3 27 1 45 9 67 28
-3 70 -113 68 -38 0 -77 -4 -86 -8 -10 -4 -23 -1 -32 8 -20 21 -37 20 -52 -1
-16 -22 -69 -19 -129 7 -25 10 -68 20 -96 22 -27 2 -50 6 -50 11 0 4 -144 7
-320 7 l-320 0 0 -463z m2617 399 c17 -24 26 -25 233 -41 318 -24 425 -38 436
-56 7 -13 -7 -99 -16 -99 -5 0 -13 12 -18 28 -10 25 -10 22 -11 -23 -1 -27 -6
-67 -12 -89 -13 -46 -4 -95 14 -77 19 19 27 12 27 -26 0 -53 -16 -77 -25 -37
-10 45 -13 51 -14 26 -1 -12 -12 -40 -26 -62 -23 -37 -26 -38 -57 -29 -18 5
-33 9 -34 9 -1 0 -7 14 -14 30 -8 20 -11 52 -7 90 7 60 -4 85 -21 53 -8 -14
-14 -15 -35 -6 -17 8 -28 8 -35 1 -7 -7 -18 -4 -35 7 -30 19 -51 12 -42 -15 8
-25 -15 -37 -30 -17 -7 11 -26 17 -48 17 -20 0 -38 4 -41 9 -3 4 -23 11 -43
13 -21 3 -56 17 -76 31 -29 20 -46 25 -68 20 -21 -4 -35 0 -49 12 -13 12 -27
15 -44 11 -20 -5 -29 -1 -41 18 -9 14 -28 26 -42 28 -25 3 -26 5 -27 78 l-1
75 63 0 c51 1 66 5 84 23 28 28 32 28 55 -2z m-1360 -208 c-3 -7 -5 -2 -5 12
0 14 2 19 5 13 2 -7 2 -19 0 -25z m-700 -30 c-4 -28 -2 -37 4 -27 6 10 11 11
17 3 4 -6 24 -14 46 -18 45 -9 37 -27 -15 -31 -18 -1 -35 -9 -37 -16 -7 -22
-34 -49 -43 -43 -7 4 -4 66 7 142 3 17 10 32 16 32 7 0 9 -15 5 -42z m-377
-754 c0 -18 -24 -28 -46 -20 -14 5 -12 9 7 25 26 21 39 19 39 -5z m54 -256
c10 -38 7 -41 -13 -17 -11 13 -17 27 -14 31 8 15 21 8 27 -14z"/>
<path d="M552 4430 c0 -14 2 -19 5 -12 2 6 2 18 0 25 -3 6 -5 1 -5 -13z"/>
<path d="M1200 4784 c0 -8 5 -12 10 -9 6 3 10 10 10 16 0 5 -4 9 -10 9 -5 0
-10 -7 -10 -16z"/>
<path d="M1520 4793 c0 -4 5 -22 12 -40 14 -38 31 -39 36 -2 2 13 9 30 14 37
8 9 2 12 -26 12 -20 0 -36 -3 -36 -7z"/>
<path d="M1251 4711 c-10 -7 -8 -12 10 -25 27 -18 45 -20 54 -6 16 26 -33 50
-64 31z"/>
<path d="M1512 4689 c1 -13 8 -23 13 -21 15 3 12 35 -3 40 -9 3 -13 -3 -10
-19z"/>
<path d="M1512 4555 c0 -16 2 -22 5 -12 2 9 2 23 0 30 -3 6 -5 -1 -5 -18z"/>
<path d="M4783 4434 c-7 -12 -27 -24 -46 -28 -29 -5 -33 -10 -32 -39 0 -29 3
-32 27 -29 14 2 29 -1 32 -6 8 -13 -22 -52 -41 -52 -10 0 -13 -6 -9 -16 3 -9
6 -18 6 -20 0 -2 10 -4 21 -4 20 0 21 -3 14 -67 -4 -38 -13 -75 -21 -84 -8 -8
-14 -21 -14 -27 0 -16 60 -46 71 -35 5 5 8 103 7 219 -3 171 -5 205 -15 188z"/>
<path d="M3920 4409 c0 -26 -2 -28 -25 -19 -30 12 -52 4 -66 -22 -8 -15 -8
-22 0 -27 6 -4 10 -38 8 -86 -2 -79 -2 -80 -29 -83 -32 -4 -58 -30 -37 -36
112 -31 205 -28 219 8 4 11 31 46 59 76 39 41 51 61 51 86 0 23 -5 33 -20 37
-13 3 -20 14 -20 29 0 47 -24 65 -85 65 -54 0 -55 0 -55 -28z"/>
<path d="M4562 4295 c0 -16 2 -22 5 -12 2 9 2 23 0 30 -3 6 -5 -1 -5 -18z"/>
<path d="M4642 4295 c0 -16 2 -22 5 -12 2 9 2 23 0 30 -3 6 -5 -1 -5 -18z"/>
<path d="M4653 4223 c-7 -2 -13 -11 -13 -18 0 -8 -5 -17 -10 -20 -16 -10 -50
5 -50 21 0 23 -14 16 -58 -30 -23 -24 -62 -53 -88 -65 -39 -19 -51 -21 -75
-11 -29 12 -73 5 -64 -11 4 -5 28 -9 54 -9 26 0 52 -5 58 -11 25 -25 239 -46
276 -27 14 7 17 22 17 83 0 100 -7 115 -47 98z"/>
<path d="M3645 4150 c3 -5 8 -10 11 -10 2 0 4 5 4 10 0 6 -5 10 -11 10 -5 0
-7 -4 -4 -10z"/>
<path d="M3460 3514 c0 -14 3 -14 15 -4 8 7 15 14 15 16 0 2 -7 4 -15 4 -8 0
-15 -7 -15 -16z"/>
<path d="M4430 3505 c-13 -35 -13 -45 4 -45 19 0 38 26 34 46 -5 28 -27 28
-38 -1z"/>
<path d="M3497 3503 c-14 -13 -6 -21 26 -26 17 -3 42 -8 55 -12 14 -5 22 -3
22 4 0 6 -10 11 -23 11 -13 0 -32 7 -43 15 -22 16 -28 18 -37 8z"/>
<path d="M3740 3405 c-5 -14 -13 -59 -16 -98 -7 -78 -19 -97 -65 -97 -19 0
-28 -6 -33 -22 -9 -36 -7 -48 9 -48 8 0 15 -4 15 -10 0 -18 26 -11 53 14 18
17 25 31 20 42 -5 15 -2 16 25 11 29 -6 31 -4 46 40 29 84 15 183 -27 191 -11
2 -20 -6 -27 -23z"/>
<path d="M357 3154 c-31 -17 -32 -15 3 -66 24 -36 50 -50 50 -27 0 7 10 9 25
5 21 -5 25 -2 36 34 9 28 9 44 2 51 -18 18 -86 20 -116 3z"/>
<path d="M0 2881 l0 -251 40 0 c34 0 42 -4 55 -30 9 -16 22 -30 29 -30 17 0
36 51 36 96 0 18 4 35 9 38 14 9 20 60 11 100 -10 45 -13 49 -43 52 -12 1 -25
3 -29 3 -5 1 -8 8 -8 16 0 12 10 15 41 13 40 -2 69 17 69 45 0 16 -73 77 -91
77 -10 0 -22 6 -26 14 -4 7 -27 35 -50 61 l-43 48 0 -252z"/>
<path d="M4482 3068 c-12 -14 -22 -30 -22 -36 0 -19 45 -14 73 8 14 11 29 20
34 20 16 0 52 -44 64 -78 13 -37 24 -40 39 -12 14 26 -4 86 -28 99 -9 5 -44
12 -77 16 -55 6 -62 4 -83 -17z"/>
<path d="M2790 3069 c-14 -6 -45 -14 -70 -18 -85 -15 -185 -43 -238 -67 -66
-30 -83 -64 -52 -105 11 -16 20 -35 20 -44 0 -28 20 -55 40 -55 14 0 20 -7 20
-22 0 -26 69 -93 118 -114 29 -13 40 -13 93 2 33 9 64 24 69 34 7 14 0 20 -43
38 -29 12 -62 22 -75 22 -15 0 -22 6 -22 20 0 19 0 19 35 -1 51 -30 115 -4
115 48 0 34 26 40 55 13 32 -30 77 -28 121 5 37 28 40 38 22 61 -23 27 -32 35
-67 55 -37 22 -33 36 14 41 51 5 40 38 -24 71 -57 28 -90 32 -131 16z"/>
<path d="M1864 3011 c-85 -6 -93 -10 -151 -71 -36 -38 -37 -49 -15 -162 10
-56 24 -74 60 -82 43 -10 98 -39 108 -56 33 -60 59 -89 85 -100 35 -15 146 -8
181 11 31 16 97 89 104 114 3 11 17 50 31 86 20 54 23 70 14 87 -6 12 -9 32
-6 45 5 18 0 28 -20 41 -14 10 -35 26 -46 37 -10 10 -30 19 -43 19 -14 0 -27
4 -30 9 -3 5 -41 12 -83 15 -43 4 -85 8 -93 10 -8 1 -51 0 -96 -3z m96 -325
c0 -12 -17 -6 -40 14 -14 12 -20 26 -16 35 5 14 10 11 31 -13 14 -17 25 -33
25 -36z m120 20 c0 -19 -6 -25 -30 -28 -40 -6 -44 1 -17 27 29 30 47 30 47 1z"/>
<path d="M380 2971 c0 -49 -10 -56 -49 -37 -35 19 -91 5 -91 -22 1 -51 58 -67
104 -31 24 19 29 20 50 6 33 -22 45 -8 48 58 l3 60 -32 3 c-32 3 -33 2 -33
-37z"/>
<path d="M1100 2987 c0 -9 10 -32 22 -53 20 -34 20 -38 5 -49 -9 -7 -17 -23
-17 -36 1 -42 29 -142 42 -150 7 -5 38 -9 68 -9 35 0 68 -7 91 -19 53 -29 82
-12 89 52 4 34 12 52 29 64 20 14 23 22 18 66 -5 55 -24 78 -102 120 -53 28
-245 39 -245 14z"/>
<path d="M3700 2866 c0 -58 4 -106 9 -106 22 0 25 200 4 207 -10 4 -13 -21
-13 -101z"/>
<path d="M3427 2943 c-2 -5 -7 -36 -11 -71 -7 -66 2 -92 31 -92 31 0 55 109
33 151 -11 19 -45 26 -53 12z"/>
<path d="M506 2899 c-10 -15 -12 -29 -6 -44 5 -12 8 -99 8 -194 0 -94 2 -174
5 -177 9 -10 77 19 77 33 0 7 -7 76 -16 154 -13 115 -14 149 -4 182 11 36 10
42 -6 54 -25 18 -41 16 -58 -8z"/>
<path d="M666 2830 c-28 -34 -28 -62 0 -107 8 -12 14 -46 13 -75 0 -38 7 -67
25 -102 14 -27 26 -56 26 -64 0 -9 8 -24 17 -34 11 -12 17 -34 16 -59 -2 -30
3 -41 19 -50 28 -15 10 -31 -44 -39 l-43 -5 26 -18 c14 -9 52 -20 85 -23 49
-5 66 -3 98 14 l39 21 -42 17 c-45 18 -56 41 -43 89 9 29 10 30 65 27 l56 -4
7 37 c8 43 -1 134 -15 148 -5 5 -17 5 -29 -2 -42 -22 -112 -7 -112 24 0 13
-19 19 -57 18 -8 -1 -13 13 -13 36 0 29 7 44 33 69 26 25 36 29 45 20 9 -9 12
-8 12 5 0 9 -6 17 -13 17 -7 0 -17 8 -23 18 -7 10 -31 24 -54 31 -23 7 -48 15
-55 17 -7 3 -24 -9 -39 -26z"/>
<path d="M4174 2851 c-33 -14 -64 -65 -64 -105 0 -41 19 -48 42 -15 8 12 27
23 42 25 16 2 36 10 45 18 10 9 25 16 34 16 48 0 10 58 -43 65 -19 3 -45 1
-56 -4z"/>
<path d="M3940 2835 c-7 -8 -16 -12 -21 -9 -5 3 -6 -2 -3 -10 3 -9 8 -16 10
-16 11 0 54 33 54 41 0 14 -26 10 -40 -6z"/>
<path d="M4772 2830 c-34 -32 -39 -70 -12 -92 12 -10 26 -18 31 -18 5 0 9 29
9 65 0 36 -1 65 -3 65 -2 0 -13 -9 -25 -20z"/>
<path d="M3658 2730 c-38 -5 -78 -43 -78 -75 0 -9 -13 -43 -30 -77 -40 -79
-39 -88 8 -88 21 0 43 -5 49 -11 8 -8 20 -9 42 -1 22 8 32 7 39 -1 12 -16 23
-63 25 -107 2 -32 7 -37 65 -67 69 -35 92 -34 92 4 0 37 -16 60 -51 72 -43 15
-36 45 11 49 19 2 46 11 59 21 l24 19 -18 38 c-22 47 -31 54 -72 54 -24 0 -37
-7 -49 -25 -25 -39 -44 -32 -44 16 0 23 -4 58 -10 78 -5 20 -13 52 -17 71 -8
34 -10 35 -45 30z"/>
<path d="M3250 2706 c0 -14 5 -28 10 -31 6 -4 10 7 10 24 0 17 -4 31 -10 31
-5 0 -10 -11 -10 -24z"/>
<path d="M4278 2702 c-2 -11 -5 -26 -8 -37 -2 -5 -3 -35 -4 -67 -1 -41 -7 -64
-23 -87 -25 -33 -20 -43 14 -30 24 9 43 61 43 119 0 19 4 41 9 49 11 17 3 48
-15 55 -8 3 -15 2 -16 -2z"/>
<path d="M1556 2661 c-8 -13 21 -34 39 -27 20 7 8 36 -15 36 -11 0 -21 -4 -24
-9z"/>
<path d="M3450 2531 c0 -58 16 -74 42 -41 24 29 23 45 -4 70 -32 30 -38 25
-38 -29z"/>
<path d="M177 2533 c-10 -10 -8 -51 2 -58 14 -8 32 30 25 49 -7 17 -16 20 -27
9z"/>
<path d="M1267 2513 c-3 -5 2 -23 12 -40 17 -26 26 -31 82 -38 35 -4 74 -7 86
-6 24 1 37 -23 20 -37 -7 -5 -28 -13 -47 -17 -19 -4 -45 -13 -57 -21 -21 -13
-23 -13 -23 8 -1 20 -2 21 -13 7 -7 -9 -16 -18 -22 -20 -5 -2 -8 -8 -6 -14 2
-5 4 -17 5 -25 3 -16 46 -28 46 -12 0 5 24 5 57 1 31 -4 61 -5 66 -2 4 3 16
-2 26 -11 16 -15 19 -14 30 11 11 23 10 29 -4 39 -9 7 -15 17 -12 21 3 5 2 15
-3 22 -13 22 38 71 74 71 36 0 48 -7 64 -35 10 -18 11 -16 11 15 0 47 -19 82
-39 70 -20 -13 -61 -12 -113 2 -30 8 -56 8 -83 2 -23 -6 -53 -7 -74 -2 -19 5
-45 12 -56 15 -12 2 -24 1 -27 -4z"/>
<path d="M4139 2484 c-17 -20 -22 -123 -8 -140 28 -34 109 -3 109 42 0 21 -4
24 -40 24 -33 0 -40 3 -40 19 0 11 5 23 10 26 15 9 12 32 -4 38 -8 3 -20 -1
-27 -9z"/>
<path d="M23 2483 c-21 -4 -23 -10 -23 -57 l0 -54 68 -11 c37 -6 99 -17 139
-24 77 -15 93 -10 93 28 0 12 -4 25 -9 31 -5 5 -11 19 -13 32 -4 27 -24 29
-21 2 3 -25 -20 -42 -50 -35 -13 4 -42 23 -64 44 -38 37 -77 51 -120 44z"/>
<path d="M4778 2467 c-10 -14 -18 -38 -18 -52 0 -15 -4 -24 -9 -21 -11 7 -21
-17 -21 -49 0 -31 -16 -41 -78 -48 -64 -7 -77 -14 -62 -32 19 -23 -5 -52 -49
-60 -32 -5 -46 -2 -69 15 -32 24 -78 24 -75 0 1 -8 5 -26 9 -39 6 -20 4 -23
-9 -18 -40 15 -60 -20 -37 -64 14 -25 38 -24 65 1 13 12 46 25 81 30 54 9 134
13 134 8 0 -2 -9 -32 -20 -67 -10 -35 -17 -68 -14 -73 3 -5 3 -20 0 -34 -6
-23 -10 -24 -81 -24 -40 0 -76 -4 -79 -9 -5 -7 160 -144 219 -181 18 -11 25
-27 31 -65 3 -27 18 -72 32 -100 14 -27 35 -79 48 -115 l23 -65 0 147 c1 127
-1 147 -14 142 -26 -10 -31 27 -7 47 22 17 22 18 20 385 -3 355 -4 367 -20
341z"/>
<path d="M3972 2473 c-41 -5 -32 -23 13 -23 32 0 65 -21 65 -41 0 -20 16 -7
27 21 17 45 -6 55 -105 43z"/>
<path d="M2101 2435 c-23 -13 -39 -34 -105 -142 -17 -26 -36 -52 -43 -56 -7
-4 -13 -23 -13 -40 0 -18 -5 -38 -11 -44 -6 -6 -13 -47 -15 -90 -1 -43 -4 -78
-4 -78 -7 0 -5 -67 1 -71 18 -11 8 -24 -15 -18 -18 4 -29 -2 -50 -27 -28 -32
-28 -33 -7 -41 26 -9 26 -13 1 -46 -19 -23 -19 -27 -5 -35 20 -11 55 17 55 45
0 10 7 33 16 49 l15 30 20 -24 c13 -18 19 -41 19 -80 0 -31 4 -58 9 -61 15
-10 25 -119 25 -295 1 -147 -1 -175 -14 -177 -8 -2 -28 -6 -45 -10 -16 -3 -39
-9 -50 -13 -11 -5 -33 -12 -50 -17 -22 -7 -32 -17 -36 -39 -4 -17 -7 -23 -8
-14 -1 24 -26 30 -48 14 -36 -28 -45 -19 -39 35 3 28 9 72 12 100 3 27 9 48
14 45 4 -2 15 4 24 14 12 13 20 53 28 135 7 63 15 111 19 105 4 -6 12 6 19 27
10 28 10 39 1 42 -6 2 -11 12 -11 21 0 27 -9 30 -45 15 -51 -21 -54 -17 -13
20 48 44 44 72 -7 50 -37 -15 -59 -2 -26 16 12 6 26 20 32 32 16 29 -5 39 -43
21 -39 -20 -48 -9 -15 18 15 11 27 29 27 40 0 21 -20 25 -38 7 -6 -6 -15 -9
-19 -5 -4 4 -1 13 5 19 7 7 12 20 12 30 0 23 -42 25 -60 3 -7 -8 -19 -15 -26
-15 -17 0 -18 -37 -1 -43 8 -4 8 -8 2 -14 -30 -25 -38 -43 -24 -59 12 -14 9
-20 -20 -44 -18 -16 -45 -31 -60 -35 -38 -10 -162 -72 -189 -95 -21 -17 -22
-23 -13 -47 8 -20 10 -22 7 -5 -2 12 -1 22 3 22 9 0 21 -156 21 -267 0 -40 -4
-73 -8 -73 -4 0 -7 17 -5 38 2 32 1 33 -6 12 -7 -20 -9 -12 -10 35 -1 61 -26
234 -36 243 -2 3 -11 -1 -20 -8 -11 -9 -12 -16 -5 -26 8 -8 12 -147 14 -412 3
-357 2 -402 -13 -416 -44 -42 -50 -53 -44 -74 4 -16 11 -21 24 -17 21 7 25 -4
34 -107 4 -37 12 -71 18 -76 16 -13 47 -11 48 2 3 32 -4 71 -16 82 -7 8 -19
45 -26 84 -10 60 -10 84 4 163 12 64 17 149 17 270 0 106 4 177 10 177 18 0
23 -78 17 -300 -6 -213 -1 -271 19 -239 4 7 11 95 15 194 5 99 11 201 14 227
11 78 -15 471 -31 484 -17 14 -18 34 -1 34 6 0 50 16 97 36 99 41 148 55 155
44 5 -8 -21 -22 -132 -69 -68 -30 -68 -30 -66 -68 7 -142 8 -573 2 -693 -8
-138 -4 -228 9 -215 16 16 32 88 33 150 1 54 3 63 9 40 4 -16 8 -57 10 -90 2
-66 14 -111 23 -85 23 65 27 96 27 186 0 63 4 104 10 104 6 0 10 7 10 15 0 8
5 15 11 15 7 0 9 -60 5 -197 -3 -129 -2 -179 4 -143 10 65 30 130 40 130 4 0
13 -14 21 -32 11 -26 14 -29 23 -16 8 14 12 13 28 -7 10 -13 18 -33 18 -44 0
-18 4 -20 25 -15 20 5 25 2 31 -20 7 -28 22 -34 30 -12 5 12 9 12 25 -2 10 -9
19 -23 19 -31 0 -11 5 -8 16 7 21 31 39 27 51 -10 l10 -33 13 30 c6 17 16 104
21 195 9 172 15 216 31 226 6 4 7 -36 3 -103 -4 -59 -8 -178 -10 -263 -1 -86
-9 -191 -18 -236 -9 -44 -21 -139 -26 -210 -6 -71 -14 -150 -17 -176 -5 -38
-3 -48 9 -48 11 0 17 24 26 98 7 53 16 133 22 177 5 44 14 148 20 230 21 292
23 313 37 285 12 -23 12 -23 6 10 -9 49 -8 147 3 270 9 98 10 88 10 -130 1
-236 -2 -296 -32 -555 -8 -77 -18 -174 -20 -215 -3 -41 -7 -96 -10 -122 -4
-36 -2 -48 8 -48 9 0 16 34 26 123 20 188 30 291 40 429 5 70 12 132 16 139 4
6 14 53 21 103 l13 91 -4 -155 c-2 -85 -8 -182 -14 -215 -16 -91 -24 -336 -11
-305 6 14 15 72 21 130 5 58 14 155 21 215 20 184 13 436 -14 491 -5 12 -8 30
-6 40 5 29 32 23 38 -8 4 -21 8 -25 20 -18 20 12 40 -6 41 -39 0 -14 4 -35 8
-46 7 -16 9 -14 14 13 4 22 11 30 21 26 8 -3 17 2 20 14 4 11 13 22 20 25 10
4 11 18 4 63 -15 97 24 137 63 66 9 -19 33 -50 51 -70 46 -51 78 -97 78 -115
0 -8 9 -26 20 -40 11 -14 20 -35 20 -47 0 -12 5 -30 10 -41 13 -24 -2 -25 -65
-4 -25 9 -50 13 -55 10 -6 -3 -21 6 -33 21 -15 17 -30 25 -39 21 -14 -5 -14
-13 -2 -79 8 -40 14 -79 14 -85 0 -7 5 -13 10 -13 6 0 10 8 10 19 0 10 6 24
14 30 21 17 32 -9 42 -94 8 -69 8 -69 16 -30 4 22 10 67 14 100 l7 60 12 -35
c8 -23 14 -137 18 -335 8 -370 14 -455 35 -455 13 0 14 20 9 145 -7 155 -2
205 19 205 8 0 15 20 20 56 4 33 12 58 20 61 8 3 14 9 14 15 0 5 -5 6 -11 3
-7 -5 -9 7 -7 36 2 23 9 44 16 47 9 3 12 -33 13 -155 1 -87 2 -174 3 -193 1
-19 3 -77 4 -127 2 -78 5 -93 18 -93 15 0 16 26 10 283 -6 259 -2 326 19 305
9 -9 27 -381 23 -491 -3 -87 -1 -97 14 -97 17 0 18 20 15 296 -3 213 0 300 8
311 8 11 14 13 19 5 4 -6 9 -109 12 -229 2 -120 7 -256 11 -303 9 -129 21 -64
22 126 2 264 12 434 27 434 7 0 14 8 16 17 7 32 22 -329 20 -495 0 -96 3 -162
9 -162 10 0 11 24 14 376 2 252 10 364 24 364 9 0 21 -320 21 -567 0 -132 3
-173 13 -173 9 0 11 31 9 132 -4 151 14 686 24 711 3 9 13 17 22 17 13 0 14
-11 6 -78 -10 -89 -8 -442 3 -582 l7 -95 7 105 c4 58 7 177 8 265 1 88 6 194
12 235 6 41 11 87 10 101 -1 14 5 34 13 44 11 16 13 -16 8 -217 -3 -129 -1
-253 3 -274 7 -38 8 -38 17 -14 5 14 12 117 15 230 5 181 19 299 38 318 7 8 5
-203 -4 -343 -7 -98 -5 -123 6 -137 19 -21 8 -118 -16 -145 -17 -19 -48 -87
-76 -165 -18 -52 -31 -61 -38 -25 -2 12 -5 -1 -6 -30 l-1 -51 94 -1 c75 -1 95
2 100 14 7 19 26 19 26 0 0 -13 43 -15 329 -15 l329 0 7 75 c9 102 25 106 25
6 0 -72 2 -81 19 -81 16 0 18 9 19 76 0 42 5 81 11 87 8 8 11 -13 11 -70 0
-75 10 -106 28 -88 4 4 9 47 10 95 3 62 8 93 18 101 22 18 39 -3 25 -29 -17
-32 -14 -172 3 -172 17 0 32 121 21 170 -7 33 14 70 40 70 20 0 22 19 15 105
-4 44 -4 88 1 97 5 9 6 57 3 105 -4 48 -3 85 2 80 4 -4 10 -33 12 -65 5 -61 5
-67 -4 -155 -4 -36 -2 -63 5 -71 6 -7 8 -27 5 -45 -5 -24 -3 -31 9 -31 9 0 19
5 22 10 4 6 7 105 7 219 0 164 3 208 13 208 10 0 13 -21 14 -75 0 -42 3 -89 6
-106 4 -18 0 -46 -8 -66 -9 -22 -11 -43 -6 -55 4 -11 8 -39 8 -62 1 -37 14
-63 27 -50 3 2 7 29 10 58 8 79 14 90 30 54 7 -16 13 -45 14 -63 0 -43 17 -32
25 16 3 20 11 57 16 81 8 36 7 47 -6 60 -15 15 -18 14 -35 -9 -11 -14 -20 -31
-20 -37 0 -7 -4 -13 -9 -13 -13 0 -21 55 -12 87 13 46 5 175 -12 188 -22 16
-4 55 22 48 16 -4 21 1 26 23 11 47 14 54 25 54 5 0 10 -7 10 -15 0 -8 7 -15
15 -15 11 0 14 12 11 57 -2 32 -8 59 -14 61 -7 2 -12 -5 -12 -16 0 -25 -23
-44 -42 -37 -11 4 -18 -2 -22 -19 -8 -32 -26 -33 -53 -3 -25 28 -29 37 -53
154 -25 119 -25 123 0 118 15 -3 20 2 20 16 0 11 5 29 11 41 12 23 2 40 -10
18 -25 -45 -78 -110 -88 -110 -9 0 -11 33 -9 129 2 71 0 134 -4 141 -4 6 -14
-17 -24 -54 -19 -78 -20 -90 -3 -83 25 9 -1 -327 -32 -418 l-21 -60 7 60 c8
71 6 263 -3 390 l-7 90 -17 -85 c-13 -63 -16 -99 -10 -144 8 -56 0 -139 -14
-154 -17 -17 -24 35 -31 224 -6 165 -10 203 -20 194 -10 -8 -17 -1 -30 34 -10
25 -22 43 -27 40 -20 -12 -27 21 -22 96 4 42 1 86 -4 100 -10 24 -11 23 -11
-11 -1 -20 -4 -64 -7 -98 -6 -53 -8 -59 -20 -43 -7 9 -14 26 -16 37 -1 11 -5
-72 -9 -185 -4 -113 -11 -241 -15 -285 l-9 -80 -6 70 c-4 39 -11 86 -16 105
-8 31 -11 21 -21 -81 -7 -63 -13 -203 -14 -310 l-1 -194 -9 185 c-10 219 -28
392 -39 363 -11 -31 -23 -154 -20 -208 10 -162 15 -378 9 -381 -9 -6 -18 89
-29 311 -10 206 -16 289 -25 315 -10 27 -26 -18 -19 -51 9 -41 -5 -206 -16
-187 -5 9 -12 55 -15 104 -7 83 -8 86 -20 59 -7 -17 -15 -39 -18 -49 -9 -27
-17 -15 -31 46 l-11 53 -14 -78 c-14 -84 -34 -102 -46 -42 -8 47 -21 44 -29
-6 -9 -52 -28 -46 -35 12 l-5 44 -18 -67 c-9 -37 -17 -97 -17 -133 0 -41 -4
-65 -11 -65 -8 0 -9 15 -4 48 4 26 7 102 6 168 -1 92 2 124 13 133 10 9 16 8
26 -4 7 -8 16 -15 20 -15 5 0 22 41 39 90 l30 91 -27 11 c-29 13 -67 19 -121
19 -19 0 -42 4 -52 10 -11 6 -20 5 -24 -1 -9 -14 -55 -12 -56 3 -8 144 33 456
62 477 4 3 10 49 14 104 9 117 -3 125 -48 30 -16 -32 -33 -60 -38 -62 -5 -2
-9 -14 -9 -27 0 -13 -4 -27 -10 -30 -5 -3 -10 1 -10 10 0 13 -6 16 -23 11 -12
-3 -35 1 -51 9 -27 14 -29 13 -56 -15 -16 -17 -44 -37 -64 -45 -19 -8 -39 -21
-43 -29 -9 -16 -83 -62 -83 -51 0 3 -10 -1 -22 -9 -35 -25 -106 -20 -168 11
l-53 26 -21 -26 c-12 -15 -32 -27 -46 -28 -25 -1 -109 24 -143 42 -11 6 -24 6
-35 0 -15 -8 -17 -3 -19 35 -1 25 2 44 8 44 6 0 18 9 27 20 13 16 37 23 97 30
133 16 195 35 195 61 0 17 -46 32 -107 34 -67 2 -100 18 -73 35 8 5 26 10 39
10 31 0 111 38 131 62 13 15 21 17 50 8 19 -5 55 -10 80 -10 51 0 155 -45 165
-71 5 -15 45 -39 65 -39 19 0 10 30 -14 46 -15 9 -23 21 -19 30 7 18 -16 37
-76 65 -41 19 -50 20 -150 9 -58 -6 -135 -15 -169 -20 -62 -8 -74 -6 -161 26
-11 3 -5 11 19 26 29 17 39 19 65 9 62 -22 86 -7 88 56 2 33 6 39 32 48 44 15
55 24 55 46 0 37 -63 23 -123 -27 -35 -30 -58 -30 -115 -3 -25 13 -72 24 -110
27 -73 5 -91 18 -92 65 0 15 7 42 16 58 16 32 16 81 -1 85 -5 1 -21 -4 -34
-11z m-575 -834 c15 12 18 2 8 -25 -11 -30 -34 -18 -33 17 1 17 3 24 6 14 4
-14 8 -16 19 -6z m-9 -148 c-2 -16 -4 -5 -4 22 0 28 2 40 4 28 2 -13 2 -35 0
-50z m72 12 c0 -26 -2 -27 -9 -10 -5 11 -9 31 -9 45 -1 20 1 22 9 10 5 -8 9
-28 9 -45z m88 3 c-2 -13 -4 -5 -4 17 -1 22 1 32 4 23 2 -10 2 -28 0 -40z
m-30 -75 c-2 -16 -4 -5 -4 22 0 28 2 40 4 28 2 -13 2 -35 0 -50z m-178 -340
c1 -95 -3 -173 -8 -173 -15 0 -21 87 -20 269 1 164 2 173 14 126 8 -30 13
-118 14 -222z m2355 221 c8 -61 -1 -99 -20 -83 -15 12 -18 48 -8 98 9 44 20
38 28 -15z m37 -207 c-14 -100 -14 -194 -1 -202 18 -11 9 -115 -10 -115 -5 0
-14 16 -20 36 -17 52 -4 336 18 384 l16 35 4 -29 c2 -16 -1 -65 -7 -109z
m-1989 -174 c-2 -112 -9 -203 -14 -203 -10 0 -3 351 8 388 4 12 8 21 9 20 2
-2 0 -94 -3 -205z m-85 145 c-3 -8 -6 -5 -6 6 -1 11 2 17 5 13 3 -3 4 -12 1
-19z m1409 7 c8 -19 -3 -65 -16 -65 -13 0 -22 37 -15 60 8 24 23 26 31 5z
m-386 -10 c0 -16 -35 -21 -44 -6 -8 12 4 21 26 21 10 0 18 -7 18 -15z m245
-25 c8 -13 -5 -80 -15 -80 -12 0 -22 49 -15 71 7 21 20 25 30 9z m1045 -41 c0
-14 13 -45 29 -70 30 -46 51 -129 32 -129 -27 0 -102 214 -85 242 9 15 24 -12
24 -43z m-1203 -11 c-3 -8 -6 -5 -6 6 -1 11 2 17 5 13 3 -3 4 -12 1 -19z m293
-35 c0 -16 -5 -66 -11 -113 -14 -121 -15 -126 -22 -137 -3 -5 -3 -33 2 -61 6
-42 5 -52 -6 -52 -12 0 -14 26 -9 163 4 153 17 227 37 227 5 0 9 -12 9 -27z
m590 7 c0 -5 -4 -10 -10 -10 -5 0 -10 5 -10 10 0 6 5 10 10 10 6 0 10 -4 10
-10z m-339 -245 l-7 -60 -8 82 c-4 45 -4 106 0 135 l8 53 7 -75 c4 -41 4 -101
0 -135z m-61 155 c0 -22 -4 -40 -10 -40 -11 0 -13 39 -4 64 10 26 14 19 14
-24z m392 -75 c-14 -120 -29 -128 -24 -13 4 79 15 118 30 104 2 -2 -1 -43 -6
-91z m311 43 c33 -72 36 -83 27 -98 -5 -9 -15 8 -28 51 -11 35 -23 72 -27 82
-16 39 4 13 28 -35z m-754 -443 c13 -164 14 -212 2 -199 -23 23 -54 579 -35
640 6 20 10 -22 15 -141 4 -93 12 -228 18 -300z m56 248 c5 -102 4 -153 -3
-153 -12 0 -18 61 -20 215 -3 170 14 125 23 -62z m-863 122 c5 -21 4 -73 -2
-114 -5 -42 -10 -111 -11 -153 -1 -43 -5 -75 -9 -73 -20 12 -30 261 -15 353 8
43 27 36 37 -13z m198 12 c0 -5 -4 -5 -10 -2 -5 3 -10 14 -10 23 0 15 2 15 10
2 5 -8 10 -19 10 -23z m1333 -44 c4 -19 2 -33 -3 -33 -6 0 -10 17 -10 37 0 43
5 41 13 -4z m-543 -127 c-6 -14 -9 9 -8 69 l1 90 8 -69 c4 -37 4 -78 -1 -90z
m300 78 c0 -41 -4 -63 -10 -59 -16 10 -11 125 6 125 2 0 4 -30 4 -66z m-550
-334 c6 -91 13 -185 15 -210 3 -45 3 -45 -10 -15 -23 53 -44 348 -35 495 4 49
16 -69 30 -270z m497 172 c4 -58 3 -74 -6 -66 -6 6 -14 48 -17 95 -4 65 -3 80
6 66 6 -10 14 -53 17 -95z m-227 -94 c8 -89 9 -132 1 -145 -8 -14 -10 -7 -11
35 0 29 -5 84 -11 122 -10 57 -6 131 5 119 2 -2 9 -61 16 -131z m57 10 c-3 -8
-6 -5 -6 6 -1 11 2 17 5 13 3 -3 4 -12 1 -19z m-397 -123 c1 -44 5 -107 9
-140 4 -33 4 -61 -1 -63 -4 -2 -8 -12 -8 -23 0 -10 -5 -19 -10 -19 -6 0 -11
21 -11 47 0 27 -3 97 -6 156 -2 60 -1 125 3 145 l7 37 7 -30 c4 -16 9 -66 10
-110z m525 28 c4 -32 3 -53 -3 -53 -9 0 -23 72 -21 119 0 23 1 24 8 6 5 -11
12 -44 16 -72z m-596 -201 c0 -64 -3 -90 -9 -77 -12 29 -12 188 0 180 6 -3 10
-48 9 -103z m408 61 c-3 -10 -5 -2 -5 17 0 19 2 27 5 18 2 -10 2 -26 0 -35z
m142 -26 c0 -38 -3 -47 -9 -32 -12 29 -12 98 0 90 6 -3 10 -30 9 -58z m-622
-89 c-2 -13 -4 -5 -4 17 -1 22 1 32 4 23 2 -10 2 -28 0 -40z"/>
<path d="M3501 2436 c-8 -10 -8 -16 3 -25 11 -9 15 -8 20 5 13 34 -1 47 -23
20z"/>
<path d="M4291 2414 c-25 -32 -27 -76 -5 -95 29 -24 49 1 46 57 -5 63 -14 72
-41 38z"/>
<path d="M400 2406 c0 -8 -7 -16 -15 -20 -18 -7 -20 -50 -2 -64 12 -9 226 -22
260 -14 19 4 21 10 7 32 -6 10 -26 15 -57 15 -42 0 -49 3 -61 28 -16 34 -45
35 -60 2 -15 -33 -31 -32 -45 5 -12 31 -27 40 -27 16z"/>
<path d="M4256 2209 c-25 -20 -28 -20 -52 -4 -38 24 -100 12 -108 -21 -8 -29
-1 -44 20 -44 7 0 31 -16 53 -35 25 -23 44 -33 55 -29 9 3 24 0 33 -7 14 -12
17 -11 27 5 6 10 20 30 32 44 18 21 19 31 11 56 -6 17 -11 37 -13 44 -5 18
-28 15 -58 -9z"/>
<path d="M1570 2213 c0 -6 -13 -16 -30 -23 -16 -7 -30 -16 -30 -21 0 -23 210
-33 232 -11 21 21 -4 47 -48 48 -22 1 -58 5 -81 9 -27 5 -43 4 -43 -2z"/>
<path d="M3420 2061 c0 -11 5 -23 10 -26 6 -3 10 -22 10 -41 0 -25 4 -34 16
-34 12 0 14 5 8 18 -4 9 -8 31 -8 47 -1 33 -12 55 -27 55 -5 0 -9 -9 -9 -19z"/>
<path d="M0 1872 l0 -157 28 -1 c15 0 70 -2 124 -5 93 -4 127 3 99 20 -7 5
-35 12 -61 15 -70 9 -79 20 -81 97 -1 36 3 75 10 86 16 30 14 33 -16 33 -20 0
-33 8 -44 29 -9 15 -26 30 -38 34 -21 5 -21 3 -21 -151z m78 -59 c-3 -41 -33
-59 -44 -28 -9 22 12 65 31 65 13 0 15 -9 13 -37z"/>
<path d="M1624 2017 c-9 -24 6 -44 18 -22 7 11 6 21 -1 28 -7 7 -12 6 -17 -6z"/>
<path d="M3800 1989 c0 -5 5 -7 10 -4 6 3 10 8 10 11 0 2 -4 4 -10 4 -5 0 -10
-5 -10 -11z"/>
<path d="M3780 1905 c7 -8 19 -15 27 -15 13 0 13 3 3 15 -7 8 -19 15 -27 15
-13 0 -13 -3 -3 -15z"/>
<path d="M3750 1842 c0 -13 23 -32 37 -32 11 0 11 5 3 20 -10 19 -40 28 -40
12z"/>
<path d="M3720 1766 c0 -8 14 -22 32 -30 42 -21 42 -21 16 14 -23 32 -48 40
-48 16z"/>
<path d="M3697 1704 c-6 -6 -2 -37 9 -73 4 -11 8 -11 22 3 10 9 26 16 35 16
22 0 22 16 0 23 -10 4 -27 13 -39 22 -11 8 -23 12 -27 9z"/>
<path d="M389 1676 c-6 -6 -160 -14 -297 -15 l-92 -1 2 -182 3 -182 25 -6 c23
-6 25 -11 23 -54 -2 -28 3 -59 13 -78 l16 -30 19 31 c10 17 26 34 35 38 11 4
13 13 9 35 -8 34 6 54 50 73 18 7 47 31 66 54 21 27 38 40 48 36 23 -9 31 15
31 101 0 105 10 120 73 107 50 -11 57 -6 57 43 0 19 -5 24 -24 24 -13 0 -31 2
-38 5 -8 3 -16 3 -19 1z"/>
<path d="M3636 1573 c-16 -57 -17 -103 -3 -117 22 -22 27 -10 27 66 0 64 -12
90 -24 51z"/>
<path d="M1107 1504 c-10 -16 11 -312 23 -332 7 -12 8 26 4 128 -7 154 -16
222 -27 204z"/>
<path d="M442 1470 c0 -19 2 -27 5 -17 2 9 2 25 0 35 -3 9 -5 1 -5 -18z"/>
<path d="M4113 1459 c-18 -48 -16 -70 3 -36 8 16 14 38 12 49 -2 17 -5 15 -15
-13z"/>
<path d="M1302 1420 c0 -19 2 -27 5 -17 2 9 2 25 0 35 -3 9 -5 1 -5 -18z"/>
<path d="M1187 1375 c-9 -55 2 -418 13 -429 5 -5 11 13 15 40 3 27 7 60 9 73
4 22 -21 324 -27 346 -2 5 -7 -8 -10 -30z"/>
<path d="M3568 1394 c-12 -19 -19 -74 -13 -93 10 -33 35 -13 34 28 -1 41 -13
79 -21 65z"/>
<path d="M396 1250 c-4 -52 -5 -142 -4 -200 2 -58 -1 -125 -6 -149 -8 -39 -7
-43 10 -39 13 2 21 15 26 43 12 69 9 162 -5 177 -12 11 -12 16 0 26 8 8 13 37
13 81 0 38 3 83 7 101 5 28 4 32 -10 27 -10 -4 -17 0 -20 11 -2 9 -7 -26 -11
-78z"/>
<path d="M896 1274 c-18 -18 -20 -24 -6 -24 5 0 14 9 20 20 13 24 7 26 -14 4z"/>
<path d="M305 1207 c-4 -10 -5 -21 -1 -24 10 -10 18 4 13 24 -4 17 -4 17 -12
0z"/>
<path d="M920 1190 c-7 -13 -7 -20 -1 -20 6 0 15 9 21 20 7 13 7 20 1 20 -6 0
-15 -9 -21 -20z"/>
<path d="M3521 1124 c0 -11 3 -14 6 -6 3 7 2 16 -1 19 -3 4 -6 -2 -5 -13z"/>
<path d="M955 1101 c-8 -17 -12 -31 -7 -31 10 0 35 50 28 57 -2 3 -12 -9 -21
-26z"/>
<path d="M4150 1079 c0 -26 12 -59 21 -59 14 0 10 33 -6 54 -11 14 -15 16 -15
5z"/>
<path d="M3471 1064 c0 -11 3 -14 6 -6 3 7 2 16 -1 19 -3 4 -6 -2 -5 -13z"/>
<path d="M1003 1035 c-3 -9 -3 -18 -1 -21 3 -3 8 4 11 16 6 23 -1 27 -10 5z"/>
<path d="M2220 993 c0 -42 22 -199 29 -206 11 -12 23 132 15 182 -5 31 -11 41
-25 41 -11 0 -19 -7 -19 -17z"/>
<path d="M1116 930 c-22 -77 -32 -160 -19 -160 5 0 15 30 22 68 7 37 18 78 25
92 12 26 10 60 -3 60 -5 0 -16 -27 -25 -60z"/>
<path d="M1052 953 c-15 -41 -25 -89 -16 -80 9 8 34 100 29 105 -1 1 -7 -10
-13 -25z"/>
<path d="M2171 924 c0 -11 3 -14 6 -6 3 7 2 16 -1 19 -3 4 -6 -2 -5 -13z"/>
<path d="M2427 929 c7 -7 15 -10 18 -7 3 3 -2 9 -12 12 -14 6 -15 5 -6 -5z"/>
<path d="M4360 925 c0 -8 5 -15 10 -15 6 0 10 7 10 15 0 8 -4 15 -10 15 -5 0
-10 -7 -10 -15z"/>
<path d="M1184 895 c-14 -26 -37 -172 -29 -185 12 -19 21 -10 33 33 16 55 13
182 -4 152z"/>
<path d="M271 859 c-22 -29 -22 -31 -4 -44 24 -18 43 -2 43 36 0 40 -13 43
-39 8z"/>
<path d="M2116 850 c10 -76 8 -279 -3 -360 -17 -122 -24 -247 -13 -230 6 8 10
32 10 52 0 20 4 39 8 42 5 3 12 43 15 88 3 46 12 137 18 203 l13 120 12 -54
c10 -44 10 -80 -2 -190 -21 -204 -21 -202 -11 -192 16 16 35 167 36 285 1 109
0 117 -30 175 -17 34 -35 61 -39 61 -5 0 -11 8 -14 18 -2 9 -3 1 0 -18z"/>
<path d="M50 835 c-7 -8 -21 -15 -31 -15 -33 0 -21 -19 17 -26 41 -8 59 5 49
35 -8 25 -18 27 -35 6z"/>
<path d="M4369 785 c-12 -19 -19 -140 -10 -154 8 -12 11 -10 16 10 8 31 2 158
-6 144z"/>
<path d="M1057 773 c-4 -3 -7 -11 -7 -17 0 -6 5 -5 12 2 6 6 9 14 7 17 -3 3
-9 2 -12 -2z"/>
<path d="M321 736 c-8 -10 -9 -16 -1 -21 13 -8 30 3 30 21 0 18 -14 18 -29 0z"/>
<path d="M4276 723 c-14 -76 -15 -130 -2 -158 l14 -30 11 28 c12 32 14 73 5
141 -7 52 -20 60 -28 19z"/>
<path d="M140 724 c-36 -8 -82 -12 -103 -8 -36 6 -38 4 -35 -17 4 -30 57 -46
75 -23 10 14 25 16 83 12 61 -5 72 -3 80 13 8 14 6 21 -9 29 -11 5 -21 10 -23
9 -2 0 -32 -7 -68 -15z"/>
<path d="M1120 709 c0 -11 5 -17 10 -14 6 3 10 13 10 21 0 8 -4 14 -10 14 -5
0 -10 -9 -10 -21z"/>
<path d="M2232 578 c-1 -71 -6 -145 -11 -165 -5 -21 -12 -72 -14 -113 -3 -41
-3 -64 -1 -50 3 14 12 47 20 75 18 62 29 287 16 340 -7 32 -9 15 -10 -87z"/>
<path d="M4436 552 c-4 -13 -5 -26 -2 -29 10 -11 18 4 14 29 l-4 23 -8 -23z"/>
<path d="M4793 505 c0 -38 2 -53 4 -32 2 20 2 52 0 70 -2 17 -4 1 -4 -38z"/>
<path d="M4348 506 c-14 -29 -15 -37 -3 -60 10 -18 12 -42 8 -73 -4 -34 -3
-44 5 -39 7 4 12 28 12 54 0 26 4 63 10 82 10 34 5 70 -9 70 -4 0 -15 -15 -23
-34z"/>
<path d="M1857 504 c-3 -16 -11 -49 -17 -74 -15 -60 -29 -189 -30 -275 0 -49
-3 -66 -10 -55 -8 12 -10 12 -10 -5 0 -45 13 -95 25 -95 9 0 15 26 19 88 4 48
11 101 16 117 15 51 32 292 22 311 -8 14 -10 12 -15 -12z"/>
<path d="M370 470 c0 -5 4 -10 9 -10 6 0 13 5 16 10 3 6 -1 10 -9 10 -9 0 -16
-4 -16 -10z"/>
<path d="M550 468 c-14 -6 -44 -10 -67 -9 -36 2 -43 -1 -43 -17 0 -24 -19 -42
-46 -42 -12 0 -24 -6 -26 -12 -10 -25 3 -35 39 -31 44 5 103 -14 103 -32 0
-29 -41 -45 -97 -38 -54 6 -63 0 -40 -29 22 -28 69 -37 120 -24 60 15 77 33
84 85 4 32 2 41 -10 41 -8 0 -18 7 -21 16 -9 23 -8 24 12 24 26 0 42 20 42 52
0 30 -10 33 -50 16z"/>
<path d="M1778 415 c-9 -38 -19 -95 -22 -125 -6 -67 -24 -213 -31 -258 -5 -24
-2 -32 9 -32 8 0 17 3 19 8 14 21 47 320 45 393 l-3 84 -17 -70z"/>
<path d="M1275 420 c-6 -10 -1 -48 11 -93 3 -9 9 -15 14 -12 5 3 13 -18 20
-47 6 -29 24 -77 40 -107 30 -55 41 -133 20 -146 -6 -4 -10 16 -10 52 -1 66
-14 55 -23 -19 l-7 -48 79 0 c94 0 91 -5 90 150 -1 91 -2 99 -10 55 -4 -27
-13 -81 -20 -119 l-11 -69 -14 31 c-7 17 -14 57 -16 88 -3 63 -12 77 -23 36
-7 -24 -9 -21 -26 38 -10 36 -19 77 -19 92 0 15 -11 44 -25 64 -14 20 -25 43
-25 50 0 16 -36 19 -45 4z"/>
<path d="M4786 378 c-10 -87 -7 -378 4 -378 6 0 10 78 10 215 0 118 -2 215 -4
215 -2 0 -6 -24 -10 -52z"/>
<path d="M2282 375 c0 -16 2 -22 5 -12 2 9 2 23 0 30 -3 6 -5 -1 -5 -18z"/>
<path d="M2397 340 c-3 -14 -10 -70 -15 -125 -8 -81 -7 -104 4 -120 8 -11 14
-36 14 -57 0 -27 4 -38 15 -38 13 0 15 17 10 123 -7 158 -19 251 -28 217z"/>
<path d="M1622 282 c-19 -84 -28 -282 -13 -282 7 0 11 27 11 83 0 45 5 120 10
166 6 46 9 85 7 87 -1 2 -9 -22 -15 -54z"/>
<path d="M1688 255 c-23 -117 -34 -255 -21 -255 12 0 47 261 42 310 -3 28 -8
16 -21 -55z"/>
<path d="M1572 300 c0 -14 2 -19 5 -12 2 6 2 18 0 25 -3 6 -5 1 -5 -13z"/>
<path d="M2526 262 c-12 -19 -16 -81 -7 -122 10 -49 9 -51 17 73 3 54 1 66
-10 49z"/>
<path d="M1566 208 c-3 -18 -8 -72 -11 -121 -5 -74 -4 -87 9 -87 14 0 16 18
16 120 0 120 -5 149 -14 88z"/>
<path d="M2321 203 c-8 -21 -11 -57 -8 -106 5 -82 10 -97 34 -97 13 0 14 11
10 72 -4 40 -10 93 -14 118 l-8 45 -14 -32z"/>
<path d="M4091 182 c-13 -24 -15 -182 -2 -182 13 0 34 181 22 193 -6 6 -13 2
-20 -11z"/>
<path d="M4173 165 c0 -22 2 -30 4 -17 2 12 2 30 0 40 -3 9 -5 -1 -4 -23z"/>
<path d="M2072 155 c0 -16 2 -22 5 -12 2 9 2 23 0 30 -3 6 -5 -1 -5 -18z"/>
<path d="M2246 148 c-8 -30 -8 -78 0 -117 5 -21 12 -31 25 -31 23 0 25 41 7
119 -12 55 -22 64 -32 29z"/>
<path d="M1300 133 c0 -10 -7 -36 -15 -58 -18 -51 -19 -75 -1 -75 9 0 16 17
20 48 4 26 9 59 12 75 3 16 1 27 -5 27 -6 0 -11 -8 -11 -17z"/>
<path d="M2177 91 c-13 -63 -9 -91 13 -91 18 0 20 4 14 42 -4 24 -10 52 -14
62 -6 16 -8 14 -13 -13z"/>
<path d="M4163 50 c0 -30 2 -43 4 -28 2 16 2 40 0 55 -2 16 -4 3 -4 -27z"/>
<path d="M3 65 c-3 -9 -4 -17 -2 -18 2 -1 18 -12 36 -24 41 -29 50 -8 12 29
-32 32 -37 34 -46 13z"/>
<path d="M2006 55 c-3 -9 -6 -26 -5 -38 1 -16 4 -12 10 12 10 34 6 55 -5 26z"/>
<path d="M1206 32 c-4 -13 -5 -26 -2 -29 10 -11 18 4 14 29 l-4 23 -8 -23z"/>
<path d="M2532 25 c0 -17 2 -22 5 -12 2 9 2 23 0 30 -3 6 -5 -1 -5 -18z"/>
<path d="M2110 21 c0 -12 5 -21 10 -21 6 0 10 6 10 14 0 8 -4 18 -10 21 -5 3
-10 -3 -10 -14z"/>
<path d="M1771 14 c0 -11 3 -14 6 -6 3 7 2 16 -1 19 -3 4 -6 -2 -5 -13z"/>
</g>
</svg>
